<svg width="350" height="420" viewBox="0 0 350 420" fill="none" xmlns="http://www.w3.org/2000/svg">
<g clip-path="url(#clip0_311_43)">
<path d="M324.855 35.5542H48.7743C38.6467 35.5542 30.4114 43.7301 30.4114 53.7847V241.611C30.4114 251.666 38.6467 259.841 48.7743 259.841H324.855C334.983 259.841 343.218 251.666 343.218 241.611V53.7847C343.218 43.7301 334.983 35.5542 324.855 35.5542V35.5542Z" fill="#F2F2F2"/>
<path d="M294.903 50.0217H18.8219C8.69433 50.0217 0.458984 58.1976 0.458984 68.2522V256.078C0.458984 266.133 8.69433 274.309 18.8219 274.309H294.903C305.031 274.309 313.266 266.133 313.266 256.078V68.2522C313.266 58.1976 305.031 50.0217 294.903 50.0217ZM311.335 200.796C311.335 240.337 279.048 272.392 239.219 272.392H18.8219C9.74677 272.392 2.38989 265.088 2.38989 256.078V68.2522C2.38989 59.2425 9.74674 51.9387 18.8219 51.9387H294.903C303.978 51.9387 311.335 59.2425 311.335 68.2523V200.796Z" fill="#3F3D56"/>
<path d="M39.8939 233.605L38.26 232.583C39.3221 230.907 40.4181 229.283 41.5165 227.755L43.0882 228.869C42.011 230.366 40.9367 231.96 39.8939 233.605H39.8939Z" fill="#CCCCCC"/>
<path d="M50.5409 219.943L49.1587 218.605C52.105 215.607 55.206 213.034 58.3748 210.956L59.4393 212.556C56.385 214.558 53.391 217.043 50.5409 219.943V219.943ZM98.7127 207.843C96.407 207.843 94.3064 207.55 92.7338 207.295L93.0458 205.403C94.6392 205.662 96.5583 205.926 98.7127 205.926C100.615 205.926 102.485 205.719 104.43 205.292L104.846 207.164C102.764 207.621 100.757 207.843 98.7127 207.843V207.843ZM69.8203 207.59L69.2395 205.762C71.3137 205.112 73.4624 204.625 75.6257 204.314C77.4836 204.047 79.2598 203.918 81.0554 203.918H81.1742V205.835H81.0554C79.3532 205.835 77.6679 205.958 75.9024 206.211C73.8419 206.508 71.795 206.971 69.8203 207.59H69.8203ZM115.845 202.05L114.611 200.575C117.275 198.378 119.185 195.721 121.207 192.908L122.014 191.789L123.581 192.909L122.779 194.021C120.682 196.939 118.701 199.694 115.845 202.05V202.05ZM131.33 184.473L130.142 182.961C132.744 180.945 135.685 179.311 139.131 177.967C139.718 177.737 140.279 177.533 140.817 177.351L141.441 179.165C140.929 179.338 140.396 179.533 139.838 179.751C136.567 181.027 133.784 182.571 131.33 184.473ZM154.641 177.815C153.991 177.815 153.375 177.808 152.783 177.802L152.805 175.885C153.411 175.892 154.042 175.893 154.711 175.898C156.983 175.898 160.148 175.833 164.488 175.335L164.711 177.238C160.227 177.754 157.012 177.808 154.641 177.815ZM176.457 175.304L176.074 173.425C179.542 172.729 183.577 171.9 187.571 170.877L188.053 172.733C184.014 173.768 179.949 174.603 176.457 175.304ZM199.428 169.099L198.706 167.321C202.577 165.772 205.939 164.024 208.983 161.978L210.066 163.565C206.907 165.688 203.427 167.499 199.428 169.099ZM218.937 155.401L217.37 154.281C217.909 153.539 218.375 152.815 218.825 152.114C220.154 150.048 221.529 147.91 224.803 145.287L225.033 145.105L226.229 146.609L226.016 146.778C222.987 149.206 221.756 151.12 220.452 153.146C219.988 153.869 219.507 154.616 218.937 155.401ZM236.259 141.024L235.555 139.239C238.996 137.899 242.883 136.822 247.107 136.035L247.464 137.919C243.358 138.684 239.588 139.728 236.259 141.024V141.024Z" fill="#CCCCCC"/>
<path d="M259.266 136.511L259.145 134.598C261.021 134.481 262.983 134.405 264.976 134.369L265.011 136.286C263.046 136.321 261.113 136.397 259.266 136.511Z" fill="#CCCCCC"/>
<path d="M61.4255 70.7935H34.3348C32.9736 70.7935 31.8633 71.8957 31.8633 73.2472C31.8633 74.6082 32.9736 75.7105 34.3348 75.7105H61.4255C62.7868 75.7105 63.8971 74.6083 63.8971 73.2472C63.8971 71.8958 62.7868 70.7935 61.4255 70.7935Z" fill="#E6E6E6"/>
<path d="M106.802 70.7935H79.7111C78.3498 70.7935 77.2395 71.8957 77.2395 73.2472C77.2395 74.6082 78.3498 75.7105 79.7111 75.7105H106.802C108.163 75.7105 109.273 74.6083 109.273 73.2472C109.273 71.8958 108.163 70.7935 106.802 70.7935Z" fill="#E6E6E6"/>
<path d="M152.178 70.7935H125.088C123.726 70.7935 122.616 71.8957 122.616 73.2472C122.616 74.6082 123.726 75.7105 125.088 75.7105H152.178C153.539 75.7105 154.65 74.6083 154.65 73.2472C154.65 71.8958 153.539 70.7935 152.178 70.7935Z" fill="#E6E6E6"/>
<path d="M278.027 232.135H31.8362V234.052H278.027V232.135Z" fill="#E6E6E6"/>
<path d="M265.022 92.1955C247.499 92.646 234.427 97.7644 226.144 107.388C223.083 110.953 221.838 113.762 220.525 116.733C219.221 119.666 217.889 122.685 214.79 126.625V123.366C216.711 120.567 217.744 118.228 218.758 115.957C220.129 112.851 221.432 109.918 224.676 106.151C233.327 96.087 246.881 90.7482 264.964 90.2786L265.022 92.1955V92.1955Z" fill="#CCCCCC"/>
<path d="M220.525 116.733C219.221 119.666 217.889 122.685 214.79 126.625C214.423 127.094 214.027 127.583 213.602 128.091C202.422 141.29 187.487 145.622 175.477 149.111C174.723 149.331 173.99 149.533 173.275 149.724C162.597 152.6 156.747 152.494 152.392 152.427C148.019 152.351 145.132 152.303 139.967 155.236C130.496 160.594 126.615 168.434 122.859 176.016C118.988 183.818 115.338 191.189 106.031 194.649C99.5725 197.045 95.0349 195.857 90.2366 194.61C86.1141 193.527 78.6842 166.868 72.1054 162.98C58.5214 165.808 50.2668 209.879 39.9654 233.477L38.189 232.711C48.7607 208.518 57.469 164.073 71.6998 161.102C78.0429 159.779 86.3941 191.62 90.7289 192.751C95.2279 193.93 99.4663 195.032 105.356 192.847C113.948 189.665 117.269 182.946 121.121 175.172C124.829 167.696 129.028 159.223 139.002 153.568C144.63 150.376 147.903 150.434 152.421 150.51C156.727 150.587 162.539 150.683 173.275 147.74C173.816 147.587 174.366 147.434 174.936 147.271C186.695 143.858 201.322 139.612 212.115 126.864C213.177 125.609 214.056 124.449 214.79 123.366C216.711 120.567 217.744 118.228 218.758 115.957C220.129 112.851 221.838 113.762 220.525 116.733V116.733Z" fill="#B7E556"/>
<path d="M117.569 336.017C116.805 333.375 115.496 331.122 113.938 329.514L108.277 303.894L95.937 306.895L103.008 332.561C102.543 334.732 102.636 337.325 103.4 339.967C105.146 346.003 109.733 350.011 113.646 348.921C117.558 347.83 119.315 342.053 117.569 336.017L117.569 336.017Z" fill="#FFB6B6"/>
<path d="M115.862 167.954C115.862 167.954 96.3748 167.558 91.4197 181.647C86.9096 194.47 81.563 229.701 84.4533 231.737L96.7558 318.466L114.299 316.073L109.796 212.011L115.862 167.954Z" fill="#B7E556"/>
<path d="M206.101 328.943L202.644 420H156.785L154.932 379.197L146.783 420H97.6318L103.762 349.857L110.096 335.106L114.382 325.109L206.101 328.943Z" fill="#2F2E41"/>
<path d="M169.413 150.664L137.553 148.747L126.933 162.165L103.762 170.792L114.382 273.351L109.555 334.694C109.555 334.694 177.137 388.37 206.101 328.943L198.377 257.056L200.308 173.667L178.102 164.082L169.413 150.664Z" fill="#B7E556"/>
<path d="M230.749 127.335C231.095 130.658 230.656 133.783 229.645 136.289L234.952 167.739L219.804 169.808L216.052 137.682C214.546 135.435 213.473 132.465 213.128 129.142C212.338 121.55 215.642 114.992 220.508 114.493C225.374 113.994 229.959 119.744 230.749 127.335V127.335H230.749Z" fill="#FFB6B6"/>
<path d="M204.365 177.268C199.143 168.407 186.189 167.572 180.388 176.07C178.802 178.393 179.244 181.005 178.865 184.142C177.258 197.462 202.967 236.821 220.756 241.353C223.091 241.947 224.421 244.447 226.777 244.95H226.777C233.757 246.439 240.255 240.939 239.878 233.861L235.046 143.084L214.745 149.959L216.045 197.088L204.365 177.268L204.365 177.268Z" fill="#B7E556"/>
<path d="M156.79 146.266C172.289 146.266 184.853 133.792 184.853 118.405C184.853 103.018 172.289 90.5437 156.79 90.5437C141.291 90.5437 128.726 103.018 128.726 118.405C128.726 133.792 141.291 146.266 156.79 146.266Z" fill="#FFB6B6"/>
<path d="M182.93 97.9465C182.688 98.0041 186.624 94.1958 186.792 94.1126C190.653 92.1956 186.685 110.934 183.895 110.407C177.031 109.113 174.067 106.544 171.402 112.957C170.659 114.739 170.195 116.752 168.747 118.027C166.758 119.762 163.457 119.618 161.835 121.688C160.531 123.356 160.908 125.81 161.873 127.689C162.839 129.577 164.306 131.177 165.185 133.104C166.169 135.27 161.97 142.162 160.367 146.034V146.044L160.358 146.066C159.932 147.082 158.92 144.156 157.851 143.864C156.573 143.515 154.689 146.512 152.653 145.967C152.643 145.967 152.634 145.957 152.624 145.957C150.684 145.421 148.521 144.846 146.378 144.27H146.368C140.334 142.641 138.808 144.98 138.519 144.913L134.773 141.021C133.487 140.092 133.633 137.092 132.726 136.286C131.985 135.627 130.137 137.15 129.592 136.517C126.921 133.411 126.307 130.304 124.732 124.171C123.294 118.564 120.31 101.78 126.441 101.023C132.224 100.304 127.995 92.3106 133.817 92.6077C133.47 91.1508 134.116 89.5885 135.169 88.5149C136.211 87.4318 137.602 86.7609 139.002 86.1858C145.905 83.387 144.756 80.9813 152.035 82.6107C152.759 81.6042 163.273 82.2751 164.586 82.6107C164.683 82.6298 161.333 83.4254 166.517 82.6107C166.324 83.7896 169.606 84.3072 169.413 85.4861C170.137 84.518 177.919 90.0773 178.102 91.2371C178.344 92.6844 176.143 91.9464 177.61 92.1668C178.479 92.301 179.966 94.0551 179.821 94.9273C180.448 94.0838 181.076 93.2499 181.713 92.4064C181.829 92.416 181.935 92.4352 182.051 92.4543C184.986 93.0103 181.621 102.536 181.742 99.5664C181.964 94.1126 185.855 97.3044 182.93 97.9465Z" fill="#2F2E41"/>
<path d="M290.443 246.236C290.659 246.765 291.405 246.765 291.621 246.236C293.129 242.546 295.275 238.415 297.609 235.257C297.983 234.751 297.468 234.076 296.874 234.289L291.87 236.086V205.332H290.194V236.086L285.188 234.289C284.594 234.075 284.079 234.751 284.453 235.257C286.788 238.414 288.934 242.546 290.443 246.236Z" fill="#3F3D56"/>
<path d="M323.259 277.902C323.097 278.45 323.682 278.911 324.182 278.63C327.674 276.671 331.943 274.761 335.749 273.729C336.358 273.564 336.378 272.717 335.779 272.517L330.735 270.835L350 246.752L348.688 245.717L329.423 269.801L326.629 265.302C326.297 264.769 325.47 264.98 325.446 265.606C325.297 269.52 324.389 274.082 323.259 277.902Z" fill="#3F3D56"/>
<path d="M307.587 298.426H275.03C273.009 298.426 271.364 296.793 271.364 294.787C267.06 282.296 267.145 270.057 271.364 258.054C271.364 256.047 273.009 254.415 275.03 254.415H307.587C309.608 254.415 311.252 256.047 311.252 258.054V294.787C311.252 296.793 309.608 298.426 307.587 298.426Z" fill="#E6E6E6"/>
<path d="M282.006 255.499C276.732 255.499 272.457 259.743 272.457 264.979V294.007C272.457 295.849 273.96 297.341 275.815 297.341H293.819C302.844 297.341 310.16 290.078 310.16 281.118V258.833C310.16 256.992 308.656 255.499 306.802 255.499H282.006Z" fill="white"/>
<path d="M298.89 266.174H283.648C283.263 266.174 282.951 265.863 282.951 265.482C282.951 265.1 283.263 264.79 283.648 264.79H298.89C299.274 264.79 299.587 265.1 299.587 265.482C299.587 265.863 299.274 266.174 298.89 266.174Z" fill="#E6E6E6"/>
<path d="M298.89 280.927H283.648C283.263 280.927 282.951 280.617 282.951 280.235C282.951 279.854 283.263 279.544 283.648 279.544H298.89C299.274 279.544 299.587 279.854 299.587 280.235C299.587 280.617 299.274 280.927 298.89 280.927Z" fill="#E6E6E6"/>
<path d="M307.07 273.555H275.468C275.084 273.555 274.771 273.245 274.771 272.863C274.771 272.482 275.084 272.172 275.468 272.172H307.07C307.454 272.172 307.766 272.482 307.766 272.863C307.766 273.245 307.454 273.555 307.07 273.555Z" fill="#E6E6E6"/>
<path d="M307.442 286.926H294.256C293.872 286.926 293.559 286.616 293.559 286.234C293.559 285.853 293.872 285.542 294.256 285.542H307.442C307.827 285.542 308.139 285.853 308.139 286.234C308.139 286.616 307.827 286.926 307.442 286.926Z" fill="#E6E6E6"/>
<path d="M12.0327 23.6964C18.6782 23.6964 24.0654 18.4607 24.0654 12.0021C24.0654 5.54357 18.6782 0.307861 12.0327 0.307861C5.38723 0.307861 0 5.54357 0 12.0021C0 18.4607 5.38723 23.6964 12.0327 23.6964Z" fill="#B7E556"/>
<path d="M108.494 8.00134H43.7265C41.5046 8.00134 39.6968 6.20658 39.6968 4.00067C39.6968 1.79477 41.5046 0 43.7265 0H108.494C110.716 0 112.524 1.79477 112.524 4.00067C112.524 6.20658 110.716 8.00134 108.494 8.00134Z" fill="#F2F2F2"/>
<path d="M159.039 21.5421H43.7265C41.5046 21.5421 39.6968 19.7473 39.6968 17.5414C39.6968 15.3355 41.5046 13.5408 43.7265 13.5408H159.039C161.261 13.5408 163.068 15.3355 163.068 17.5414C163.068 19.7473 161.261 21.5421 159.039 21.5421Z" fill="#F2F2F2"/>
</g>
<defs>
<clipPath id="clip0_311_43">
<rect width="350" height="420" fill="white"/>
</clipPath>
</defs>
</svg>
